PathFileType	4	(X/Y/Z)	C:/Users/opensim2020/Desktop/walking_exp_matlab/subject06_walking18_straight_01.trc	
DataRate	CameraRate	NumFrames	NumMarkers	Units	OrigDataRate	OrigDataStartFrame	OrigNumFrames	
100.00	100.00	5	47	mm	100.00	1364	396	
Frame#	Time	LFHD			RFHD			LBHD			RBHD			C7			T10			CLAV			STRN			RBAK			LSHO			LUPA			LELB			LFRM			LWRA			LWRB			LFIN			RSHO			RUPA			RELB			RFRM			RWRA			RWRB			RFIN			LASI			RASI			LPSI			RPSI			LTHI			LKNE			LTIB			LANK			LHEE			LTOE			RTHI			RKNE			RTIB			RANK			RHEE			RTOE			*39			*40			*41			*42			*43			*44			*45			*46			
		X1	Y1	Z1	X2	Y2	Z2	X3	Y3	Z3	X4	Y4	Z4	X5	Y5	Z5	X6	Y6	Z6	X7	Y7	Z7	X8	Y8	Z8	X9	Y9	Z9	X10	Y10	Z10	X11	Y11	Z11	X12	Y12	Z12	X13	Y13	Z13	X14	Y14	Z14	X15	Y15	Z15	X16	Y16	Z16	X17	Y17	Z17	X18	Y18	Z18	X19	Y19	Z19	X20	Y20	Z20	X21	Y21	Z21	X22	Y22	Z22	X23	Y23	Z23	X24	Y24	Z24	X25	Y25	Z25	X26	Y26	Z26	X27	Y27	Z27	X28	Y28	Z28	X29	Y29	Z29	X30	Y30	Z30	X31	Y31	Z31	X32	Y32	Z32	X33	Y33	Z33	X34	Y34	Z34	X35	Y35	Z35	X36	Y36	Z36	X37	Y37	Z37	X38	Y38	Z38	X39	Y39	Z39	X40	Y40	Z40	X41	Y41	Z41	X42	Y42	Z42	X43	Y43	Z43	X44	Y44	Z44	X45	Y45	Z45	X46	Y46	Z46	X47	Y47	Z47	

347	3.460	1369.95886	1166.06958	1657.09192	1500.00940	1183.62048	1648.36987	1389.12500	1029.54724	1614.75342	1517.33118	1049.17395	1610.89490	1447.28467	1026.05664	1453.95679	1460.14893	984.48053	1124.23718	1437.28186	1132.88049	1373.03162	1431.76819	1167.35583	1196.26880	1535.98694	955.69025	1284.65649	1281.13086	1060.91394	1403.86902	1215.88928	1025.63306	1203.07788	1208.76025	1004.50305	1092.16223	1182.91272	1021.27100	943.00745	1210.16052	1091.90674	830.32397	1188.78149	1024.65405	823.75275	1180.13232	1065.59412	742.96930	1601.06848	1104.13550	1408.31433	1693.13831	1079.83789	1209.21204	1702.62256	1094.46570	1087.79321	1713.46411	1123.52844	970.40784	1665.32483	1190.77551	840.75665	1714.22571	1145.63928	833.99646	1708.16077	1193.65857	765.46234	1339.85632	1157.93359	965.27740	1560.53662	1162.56836	964.10730	1370.68872	998.93048	989.85547	1539.35559	1009.33411	993.10889	1273.74109	1139.97766	652.69159	1303.31079	1188.51123	499.25076	1311.00635	1227.82202	248.21294	1348.56030	1285.64258	84.53240	1399.15637	1256.71777	61.19308	1340.71472	1432.51904	88.00018	1601.96179	1074.81458	631.43231	1578.19397	1057.34290	505.80295	1568.60291	952.33594	257.85056	1518.31433	892.36658	82.30054	1474.50964	846.77258	64.51972	1519.47290	1039.22180	36.16848	1440.93640	1078.38562	1704.83337																					 
348	3.470	1368.44678	1171.67456	1656.44690	1498.44226	1189.54199	1647.81104	1388.04016	1035.23743	1614.22742	1516.17065	1055.11829	1610.50366	1446.08667	1031.67163	1453.51599	1458.82007	989.94202	1123.78662	1436.31274	1138.43555	1372.52100	1430.88281	1172.73230	1195.72266	1534.78003	961.05988	1284.28638	1279.99731	1066.69983	1403.29517	1215.10950	1031.20764	1202.39575	1208.05408	1009.96472	1091.50354	1182.51892	1026.36865	942.28253	1209.95862	1096.81067	829.51227	1188.32568	1029.80786	823.17261	1180.04883	1070.31030	742.17816	1599.92737	1109.51868	1407.91650	1692.26062	1085.27002	1208.88379	1701.92517	1099.94116	1087.52698	1712.93054	1129.08618	970.15265	1664.93738	1196.28101	840.40149	1713.87402	1151.16589	833.72015	1707.90027	1199.20605	765.25690	1339.32837	1163.77966	964.73199	1560.16809	1167.71277	963.98676	1369.48743	1004.67072	989.10809	1538.27075	1014.45245	992.53632	1273.35449	1146.18958	652.19489	1302.89722	1193.86206	498.76294	1310.55139	1233.83826	247.52686	1347.97327	1292.90674	84.18856	1399.64197	1264.10315	60.96999	1337.88562	1439.52356	88.87047	1601.46741	1080.51086	631.04456	1577.89099	1063.46692	505.32504	1568.70593	955.94080	258.54007	1518.58569	893.07709	83.50916	1474.70410	847.08777	66.27141	1519.55896	1039.36560	36.11493	1439.59680	1084.20947	1704.32007																					 
349	3.480	1366.93860	1177.38257	1655.83423	1496.89185	1195.51025	1647.32861	1386.81372	1040.96240	1613.72339	1514.93481	1061.11340	1610.16638	1444.73840	1037.35144	1453.09009	1457.50146	995.78564	1123.23718	1435.13538	1143.96936	1371.97461	1429.90356	1178.13635	1195.23401	1533.45227	966.45074	1284.00208	1278.73303	1072.48059	1402.76807	1214.12598	1036.94055	1201.81921	1207.41199	1015.90472	1090.93433	1181.84045	1031.86023	941.60889	1209.62109	1101.98279	828.79346	1188.10278	1034.71887	822.43994	1179.82861	1075.35962	741.46387	1598.72156	1114.91357	1407.52527	1691.46423	1090.77295	1208.71790	1701.14001	1105.43689	1087.27368	1712.27051	1134.53442	969.88000	1664.52759	1201.75500	840.08527	1713.71436	1156.79028	833.70105	1707.64441	1204.61829	764.98108	1338.73633	1169.78076	964.32294	1559.65796	1172.98267	963.90991	1368.29956	1010.54974	988.42310	1537.06018	1019.72675	991.93134	1273.00037	1152.49780	651.73633	1302.41382	1199.41687	498.26712	1309.99084	1239.44067	246.85997	1347.28772	1298.99487	83.66856	1399.61743	1270.65942	60.39645	1335.27771	1445.35986	89.06368	1601.05176	1086.43970	630.95416	1577.25525	1069.78223	504.85168	1568.54553	959.38782	258.97531	1518.89941	893.91925	85.04021	1475.08521	847.61517	68.30989	1519.56592	1039.46594	36.08792	1438.22620	1090.11450	1703.88501																					 
350	3.490	1365.29089	1183.05127	1655.25671	1495.21411	1201.47522	1646.83057	1385.54871	1046.55383	1613.36060	1513.60901	1067.03418	1609.83191	1443.39258	1042.87451	1452.68066	1456.07507	1000.86041	1122.82947	1433.90662	1149.53223	1371.47864	1428.90186	1183.58691	1194.78516	1532.08313	971.83899	1283.78796	1277.42639	1078.35864	1402.25171	1212.90881	1042.70837	1201.33740	1206.26697	1021.49823	1090.38721	1181.22009	1037.43713	940.95996	1209.35132	1107.18372	828.02484	1188.24036	1040.81567	821.72894	1179.44995	1080.63367	740.82739	1597.47998	1120.32251	1407.18347	1690.18567	1096.07678	1208.38354	1700.16443	1110.85876	1087.03552	1711.60962	1140.07788	969.75366	1664.11218	1207.16260	839.78979	1713.24695	1162.19434	833.52179	1707.37781	1209.99817	764.70361	1338.03625	1175.83716	963.98212	1559.07214	1178.36511	963.88068	1367.08044	1016.52698	987.76813	1535.89160	1025.16724	991.37360	1272.50781	1158.93103	651.40021	1301.97437	1204.89832	497.75458	1309.43799	1244.39001	246.02470	1346.66101	1304.03149	82.86598	1399.24011	1276.20410	59.55153	1332.99573	1450.05457	88.51928	1600.45898	1092.52808	630.56549	1576.89905	1076.19592	504.50000	1568.45532	962.97760	259.70041	1519.19421	894.87000	86.70100	1475.63367	848.51569	70.51752	1519.61316	1039.63660	36.14568	1436.73254	1095.99146	1703.44849																					 
351	3.500	1363.64026	1188.79382	1654.73108	1493.53943	1207.43457	1646.38440	1384.20129	1052.30139	1612.98010	1512.19958	1073.00232	1609.54578	1442.03906	1048.53479	1452.32959	1454.64905	1006.16772	1122.38574	1432.73621	1155.16614	1371.11768	1427.80090	1189.09534	1194.39026	1530.66260	977.28925	1283.55920	1276.07251	1084.30286	1401.81519	1211.68250	1048.70483	1200.82703	1205.40283	1027.64087	1089.87561	1180.51025	1043.07422	940.31628	1209.03308	1112.57959	827.28461	1187.21033	1045.83362	821.21490	1179.06519	1085.97119	740.15912	1596.12231	1125.70435	1406.93945	1688.98596	1101.43738	1208.20068	1699.16626	1116.31079	1086.87634	1710.82544	1145.45166	969.64819	1663.73401	1212.54846	839.51746	1712.61133	1167.38928	833.21515	1707.27026	1215.18103	764.59174	1337.30933	1181.93872	963.67358	1558.42773	1183.94861	963.93378	1365.95740	1022.55383	987.08661	1534.71460	1030.67456	990.85272	1272.05334	1165.27783	650.97534	1301.34387	1210.59143	497.28375	1308.81653	1248.96912	245.05219	1345.96643	1308.02612	81.77145	1398.64124	1280.74805	58.48387	1331.00647	1453.79382	87.19115	1599.93286	1098.73657	630.36041	1576.46082	1082.70020	504.31332	1568.27429	966.50159	260.54654	1519.45020	895.85034	88.55656	1475.94360	849.22748	72.93721	1519.67639	1039.76453	36.10107	1435.21484	1101.88147	1703.07104																					 
